<?xml version="1.0" encoding="UTF-8"?>
<svg width="19px" height="20px" viewBox="0 0 19 20" version="1.1" xmlns="http://www.w3.org/2000/svg" xmlns:xlink="http://www.w3.org/1999/xlink">
    <!-- Generator: Sketch 48.2 (47327) - http://www.bohemiancoding.com/sketch -->
    <title>Group 2</title>
    <desc>Created with Sketch.</desc>
    <defs></defs>
    <g id="Page-1" stroke="none" stroke-width="1" fill="none" fill-rule="evenodd">
        <g id="8BIT-Vector-Icon-Pack-DD" transform="translate(-466.000000, -606.000000)" fill="#FFFBFA">
            <g id="Group-2" transform="translate(466.000000, 606.000000)">
                <polygon id="Fill-222" points="15 4 19 4 19 0 15 0"></polygon>
                <path d="M12,14 L10,14 L10,16 L6,16 L6,14 L4,14 L4,10 L6,10 L6,8 L10,8 L10,10 L12,10 L12,14 Z M14,6 L12,6 L12,4 L4,4 L4,6 L2,6 L2,8 L0,8 L0,16 L2,16 L2,18 L4,18 L4,20 L12,20 L12,18 L14,18 L14,16 L16,16 L16,8 L14,8 L14,6 Z" id="Fill-223"></path>
            </g>
        </g>
    </g>
</svg>
