<?xml version="1.0" encoding="UTF-8"?>
<svg width="20px" height="20px" viewBox="0 0 20 20" version="1.1" xmlns="http://www.w3.org/2000/svg" xmlns:xlink="http://www.w3.org/1999/xlink">
    <!-- Generator: Sketch 48.2 (47327) - http://www.bohemiancoding.com/sketch -->
    <title>Group</title>
    <desc>Created with Sketch.</desc>
    <defs></defs>
    <g id="Page-1" stroke="none" stroke-width="1" fill="none" fill-rule="evenodd">
        <g id="8BIT-Vector-Icon-Pack-DD" transform="translate(-191.000000, -606.000000)" fill="#FFFBFA">
            <g id="Group" transform="translate(191.000000, 606.000000)">
                <polygon id="Fill-217" points="0 20 4 20 4 16 0 16"></polygon>
                <polyline id="Fill-218" points="10 12 8 12 8 10 6 10 6 8 0 8 0 12 4 12 4 14 6 14 6 16 8 16 8 20 12 20 12 14 10 14 10 12"></polyline>
                <polyline id="Fill-219" points="18 12 18 10 16 10 16 8 14 8 14 6 12 6 12 4 10 4 10 2 8 2 8 0 0 0 0 4 6 4 6 6 8 6 8 8 10 8 10 10 12 10 12 12 14 12 14 14 16 14 16 20 20 20 20 12 18 12"></polyline>
            </g>
        </g>
    </g>
</svg>
