<?xml version="1.0" encoding="UTF-8"?>
<svg width="8px" height="7px" viewBox="0 0 8 7" version="1.1" xmlns="http://www.w3.org/2000/svg" xmlns:xlink="http://www.w3.org/1999/xlink">
    <!-- Generator: Sketch 48.2 (47327) - http://www.bohemiancoding.com/sketch -->
    <title>Shape</title>
    <desc>Created with Sketch.</desc>
    <defs></defs>
    <g id="iPad-Pro" stroke="none" stroke-width="1" fill="none" fill-rule="evenodd" transform="translate(-685.000000, -632.000000)">
        <polygon id="Shape" fill="#B344BB" fill-rule="nonzero" points="691.450502 632.534858 692.034687 632.534858 692.034687 633.119043 692.637789 633.119043 692.637789 635.445645 692.043467 635.445645 692.043467 636.024083 691.460719 636.024083 691.460719 636.606832 690.88236 636.606832 690.88236 637.190937 690.298096 637.190937 690.298096 637.769295 689.709521 637.769295 689.709521 638.381097 687.974446 638.381097 687.974446 637.776558 687.391698 637.776558 687.391698 637.19828 686.81334 637.19828 686.81334 636.619922 686.229075 636.619922 686.229075 636.035577 685.650717 636.035577 685.650717 635.452909 685.099976 635.452909 685.099976 633.130696 685.64058 633.130696 685.64058 632.547948 686.218938 632.547948 686.218938 632 687.965746 632 687.965746 632.537731 688.548494 632.537731 688.548494 633.116169 689.126773 633.116169 689.126773 632.544994 689.709521 632.544994 689.709521 632.001517 691.450502 632.001517"></polygon>
    </g>
</svg>
