<?xml version="1.0" encoding="UTF-8"?>
<svg width="22px" height="16px" viewBox="0 0 22 16" version="1.1" xmlns="http://www.w3.org/2000/svg" xmlns:xlink="http://www.w3.org/1999/xlink">
    <!-- Generator: Sketch 48.2 (47327) - http://www.bohemiancoding.com/sketch -->
    <title>Fill 221</title>
    <desc>Created with Sketch.</desc>
    <defs></defs>
    <g id="Page-1" stroke="none" stroke-width="1" fill="none" fill-rule="evenodd">
        <g id="8BIT-Vector-Icon-Pack-DD" transform="translate(-372.000000, -608.000000)" fill="#FFFBFA">
            <polyline id="Fill-221" points="390 612 390 610 388 610 388 608 384 608 384 610 382 610 382 614 380 614 380 612 378 612 378 610 376 610 376 608 372 608 372 612 374 612 374 618 376 618 376 620 372 620 372 624 384 624 384 622 386 622 386 620 388 620 388 618 390 618 390 616 394 616 394 612 390 612"></polyline>
        </g>
    </g>
</svg>
